<svg xmlns="http://www.w3.org/2000/svg" data-name="Layer 1" viewBox="0 0 100 125" x="0px" y="0px"><title>06</title><g data-name="Group"><path data-name="Compound Path" d="M93,40.82,86.15,40a37.12,37.12,0,0,0-3.55-8.55l4.3-5.4a3,3,0,0,0-.23-4L77.9,13.33a3,3,0,0,0-4-.23l-5.4,4.3A37.09,37.09,0,0,0,60,13.85L59.18,7a3,3,0,0,0-3-2.66H43.8a3,3,0,0,0-3,2.66L40,13.85a37.1,37.1,0,0,0-8.55,3.55l-5.4-4.3a3,3,0,0,0-4,.23L13.33,22.1a3,3,0,0,0-.23,4l4.3,5.4A37.12,37.12,0,0,0,13.85,40L7,40.82a3,3,0,0,0-2.66,3V56.2a3,3,0,0,0,2.66,3l6.85.77a37.06,37.06,0,0,0,3.55,8.55l-4.3,5.4a3,3,0,0,0,.23,4l8.77,8.77a3,3,0,0,0,4,.23l5.4-4.3A37.11,37.11,0,0,0,40,86.14L40.82,93a3,3,0,0,0,3,2.66H56.2a3,3,0,0,0,3-2.66L60,86.14a37.11,37.11,0,0,0,8.55-3.55l5.4,4.3a3,3,0,0,0,4-.23l8.77-8.77a3,3,0,0,0,.23-4l-4.3-5.4A37.06,37.06,0,0,0,86.15,60L93,59.18a3,3,0,0,0,2.66-3V43.8A3,3,0,0,0,93,40.82ZM62.09,62.09a16.91,16.91,0,0,1-24.18,0,16.91,16.91,0,0,1,0-24.18,16.91,16.91,0,0,1,24.18,0,16.91,16.91,0,0,1,0,24.18Z" fill="black"/></g></svg>