<?xml version="1.0" encoding="utf-8"?>
<!-- Generator: Adobe Illustrator 23.0.1, SVG Export Plug-In . SVG Version: 6.00 Build 0)  -->
<svg version="1.1" id="Camada_1" xmlns="http://www.w3.org/2000/svg" xmlns:xlink="http://www.w3.org/1999/xlink" x="0px" y="0px"
	 viewBox="0 0 230 230" style="enable-background:new 0 0 230 230;" xml:space="preserve">
<style type="text/css">
	.st0{display:none;}
	.st1{display:inline;}
	.st2{fill:none;stroke:#000000;stroke-width:15;stroke-linecap:round;stroke-linejoin:round;stroke-miterlimit:10;}
</style>
<g class="st0">
	<path class="st1" d="M264.8,369.2c-2.2,0-4.4-0.5-6.5-1.4L110.5,302l-147.8,65.8c-5.5,2.4-11.8,1.6-16.5-2.1s-6.9-9.8-5.7-15.7
		l32.6-163.3L-140.8,72.6c-4.2-4.2-5.7-10.3-4-16c1.7-5.6,6.4-9.9,12.2-11.1L30.7,12.8l65.2-147c5.2-11.6,24.1-11.6,29.3,0l65.2,147
		l163.3,32.7c5.8,1.2,10.5,5.4,12.2,11.1c1.7,5.7,0.2,11.8-4,16l-114,114.2L280.5,350c1.2,5.9-1,11.9-5.7,15.7
		C271.9,368,268.3,369.2,264.8,369.2L264.8,369.2z M110.5,268.5c2.2,0,4.4,0.5,6.5,1.4L243,326l-28.2-141.3
		c-1-5.3,0.6-10.7,4.4-14.5l98.9-99L176,42.7c-5.1-1-9.4-4.4-11.5-9.2l-54-121.6l-54,121.6c-2.1,4.8-6.4,8.2-11.5,9.2L-97,71.1
		l98.9,99c3.8,3.8,5.4,9.2,4.4,14.5l-28.2,141.3l126-56.1C106.1,268.9,108.3,268.5,110.5,268.5L110.5,268.5z"/>
</g>
<g id="Star">
	<path class="st2" d="M14.5,96c22.7-4.9,45.4-9.9,68.1-14.8c10-21.9,20.1-43.7,30.1-65.5c9.7,21.6,19.5,43.1,29.3,64.7
		c24.1,4.5,48.3,9,72.5,13.5c-15.9,16.1-31.7,32.1-47.6,48.2c4.7,24,9.3,47.9,14,71.9c-22.6-8.3-45.1-16.6-67.7-24.9
		c-21.8,8.9-43.7,17.8-65.5,26.6c3.6-23.1,7.3-46.2,10.9-69.3c-5.7-6.3-28.2-32.1-38.7-44.1C16.6,98.4,14.5,96,14.5,96z"/>
</g>
</svg>
