<?xml version="1.0" encoding="utf-8"?>
<!-- Generator: Adobe Illustrator 23.0.1, SVG Export Plug-In . SVG Version: 6.00 Build 0)  -->
<svg version="1.1" xmlns="http://www.w3.org/2000/svg" xmlns:xlink="http://www.w3.org/1999/xlink" x="0px" y="0px"
	 viewBox="0 0 488 501" style="enable-background:new 0 0 488 501;" xml:space="preserve">
<style type="text/css">
	.st0{display:none;}
	.st1{display:inline;}
	.st2{fill:none;stroke:#000000;stroke-width:20;stroke-linecap:round;stroke-linejoin:round;stroke-miterlimit:10;}
</style>
<g id="Camada_1" class="st0">
	<path class="st1" d="M394.3,502.7c-2.2,0-4.4-0.5-6.5-1.4L240,435.5L92.2,501.3c-5.5,2.4-11.8,1.6-16.5-2.1
		c-4.7-3.7-6.9-9.8-5.7-15.7l32.6-163.3L-11.3,206.1c-4.2-4.2-5.7-10.3-4-16c1.7-5.6,6.4-9.9,12.2-11.1l163.3-32.7l65.2-147
		c5.2-11.6,24.1-11.6,29.3,0l65.2,147l163.3,32.7c5.8,1.2,10.5,5.4,12.2,11.1c1.7,5.7,0.2,11.8-4,16L377.4,320.3L410,483.5
		c1.2,5.9-1,11.9-5.7,15.7C401.4,501.5,397.8,502.7,394.3,502.7L394.3,502.7z M240,402c2.2,0,4.4,0.5,6.5,1.4l126,56.1l-28.2-141.3
		c-1-5.3,0.6-10.7,4.4-14.5l98.9-99l-142.1-28.5c-5.1-1-9.4-4.4-11.5-9.2L240,45.4L186,167c-2.1,4.8-6.4,8.2-11.5,9.2L32.5,204.6
		l98.9,99c3.8,3.8,5.4,9.2,4.4,14.5l-28.2,141.3l126-56.1C235.6,402.4,237.8,402,240,402L240,402z"/>
</g>
<g id="Star">
	<path class="st2" d="M15,202.7c52-11.7,104-23.3,156-35c23-51.7,46-103.3,69-155c22.3,51,44.7,102,67,153
		c55.3,10.7,110.7,21.3,166,32c-36.3,38-72.7,76-109,114c10.7,56.7,21.3,113.3,32,170c-51.7-19.7-103.3-39.3-155-59
		c-50,21-100,42-150,63c8.3-54.7,16.7-109.3,25-164c-13-14.9-64.6-75.9-88.6-104.3C19.8,208.4,15,202.7,15,202.7z"/>
</g>
</svg>
